<svg width="200" height="200" viewBox="0 0 200 200" xmlns="http://www.w3.org/2000/svg">
  <!-- 背景圆 -->
  <circle cx="100" cy="100" r="90" fill="#eff4ff"></circle>
  
  <!-- 用户提供的图标作为中心元素，将缩放比例从 0.087 增加到 0.11 -->
  <g transform="translate(43, 43) scale(0.11)" fill="#0066ff">
    <path d="M512 42.666667C304.725333 42.666667 145.877333 169.557333 78.421333 332.416c-67.413333 162.858667-44.8 364.885333 101.76 511.402667 146.517333 146.56 348.586667 169.216 511.402667 101.76C854.442667 878.165333 981.333333 719.274667 981.333333 512a42.666667 42.666667 0 0 0-55.253333-40.746667 126.634667 126.634667 0 0 1-160-160 42.666667 42.666667 0 0 0-53.333333-53.333333 126.634667 126.634667 0 0 1-160-160 42.666667 42.666667 0 0 0-1.834667-3.498667A42.666667 42.666667 0 0 0 554.666667 85.333333a42.666667 42.666667 0 0 0-18.176-18.176 42.666667 42.666667 0 0 0-11.946667-22.613333 42.666667 42.666667 0 0 0-6.954667 3.712A42.666667 42.666667 0 0 0 512 42.666667z m-41.813333 91.648c0.597333 117.504 95.232 209.664 213.461333 206.037333-3.626667 118.186667 88.533333 212.864 206.037333 213.461333-15.829333 150.357333-108.288 262.186667-230.784 312.917334-134.101333 55.552-296.192 38.997333-418.389333-83.2-122.24-122.24-138.794667-284.330667-83.242667-418.432 50.730667-122.496 162.56-214.954667 312.917334-230.784z"></path>
    <path d="M362.666667 320a42.666667 42.666667 0 0 0-42.666667 42.666667v0.426666a42.666667 42.666667 0 0 0 42.666667 42.666667 42.666667 42.666667 0 0 0 42.666666-42.666667V362.666667a42.666667 42.666667 0 0 0-42.666666-42.666667zM682.666667 618.666667a42.666667 42.666667 0 0 0-42.666667 42.666666v0.426667a42.666667 42.666667 0 0 0 42.666667 42.666667 42.666667 42.666667 0 0 0 42.666666-42.666667v-0.426667a42.666667 42.666667 0 0 0-42.666666-42.666666zM512 469.333333a42.666667 42.666667 0 0 0-42.666667 42.666667v0.426667a42.666667 42.666667 0 0 0 42.666667 42.666666 42.666667 42.666667 0 0 0 42.666667-42.666666V512a42.666667 42.666667 0 0 0-42.666667-42.666667zM469.333333 682.666667a42.666667 42.666667 0 0 0-42.666666 42.666666v0.426667a42.666667 42.666667 0 0 0 42.666666 42.666667 42.666667 42.666667 0 0 0 42.666667-42.666667V725.333333a42.666667 42.666667 0 0 0-42.666667-42.666666zM298.666667 554.666667a42.666667 42.666667 0 0 0-42.666667 42.666666v0.426667a42.666667 42.666667 0 0 0 42.666667 42.666667 42.666667 42.666667 0 0 0 42.666666-42.666667V597.333333a42.666667 42.666667 0 0 0-42.666666-42.666666z"></path>
  </g>
  
  <!-- 同步箭头环绕 -->
  <path d="M100 25 A 75 75 0 0 1 175 100" stroke="#0066ff" stroke-width="10" fill="none" stroke-linecap="round"></path>
  <path d="M175 100 L 185 85 M 175 100 L 160 90" stroke="#0066ff" stroke-width="10" fill="none" stroke-linecap="round"></path>
  
  <path d="M100 175 A 75 75 0 0 1 25 100" stroke="#0066ff" stroke-width="10" fill="none" stroke-linecap="round" opacity="0.5"></path>
  <path d="M25 100 L 15 115 M 25 100 L 40 110" stroke="#0066ff" stroke-width="10" fill="none" stroke-linecap="round" opacity="0.5"></path>
</svg>
